<?xml version="1.0"?><svg xmlns="http://www.w3.org/2000/svg" xmlns:xlink="http://www.w3.org/1999/xlink" version="1.1" viewBox="0 0 512 512" style="enable-background:new 0 0 512 512;" xml:space="preserve"><g id="_x30_8_x2C__Cashier_x2C__supermarket_x2C__shop_x2C__commerce_x2C__occupation_x2C__commerce_and_shopping"><g><path style="fill:#283954;" d="M158.5,68.5h-105c-4.14,0-7.5,3.36-7.5,7.5v52.5c0,4.14,3.36,7.5,7.5,7.5h30v22.5    c0,4.14,3.36,7.5,7.5,7.5h30c4.14,0,7.5-3.36,7.5-7.5V136h30c4.14,0,7.5-3.36,7.5-7.5V76C166,71.86,162.64,68.5,158.5,68.5z     M98.5,151v-30c0-4.14,3.36-7.5,7.5-7.5s7.5,3.36,7.5,7.5v30H98.5z M151,121h-22.5c0-12.41-10.09-22.5-22.5-22.5    S83.5,108.59,83.5,121H61V83.5h90V121z"/><g><path style="fill:#DC5461;" d="M466,248.5H271c-4.14,0-7.5,3.36-7.5,7.5v67.5h15v-60h180v60h15V256     C473.5,251.86,470.14,248.5,466,248.5z"/><path style="fill:#DC5461;" d="M181,151H31c-16.542,0-30,13.458-30,30v90c0,16.542,13.458,30,30,30h45v30     c0,4.143,3.357,7.5,7.5,7.5s7.5-3.357,7.5-7.5v-75c0-8.271,6.729-15,15-15s15,6.729,15,15v75c0,4.143,3.357,7.5,7.5,7.5     s7.5-3.357,7.5-7.5v-30h45c16.542,0,30-13.458,30-30v-34.33c0-4.143-3.357-7.5-7.5-7.5s-7.5,3.357-7.5,7.5V271     c0,8.271-6.729,15-15,15h-45v-30c0-16.542-13.458-30-30-30s-30,13.458-30,30v30H31c-8.271,0-15-6.729-15-15v-90     c0-8.271,6.729-15,15-15h150c8.271,0,15,6.729,15,15v25.67c0,4.143,3.357,7.5,7.5,7.5s7.5-3.357,7.5-7.5V181     C211,164.458,197.542,151,181,151z"/></g><path style="fill:#283954;" d="M459.39,193.04c-3.34-0.22-57.29-3.82-60.89-4.06v-14.26c26.46-11.6,45-38.03,45-68.72V41.33    C443.5,19.09,425.41,1,403.17,1h-69.34c-22.24,0-40.33,18.09-40.33,40.33V106c0,30.69,18.54,57.12,45,68.72v14.26    c-14.63,0.98-46.22,3.08-60.89,4.06C248.67,194.97,226,219.2,226,248.21v75.29H8.5c-4.14,0-7.5,3.36-7.5,7.5v45    c0,4.14,3.36,7.5,7.5,7.5h15v120c0,4.14,3.36,7.5,7.5,7.5h450c4.14,0,7.5-3.36,7.5-7.5v-120h15c4.14,0,7.5-3.36,7.5-7.5V248.21    C511,219.2,488.33,194.97,459.39,193.04z M308.5,41.33c0-13.97,11.36-25.33,25.33-25.33h69.34c13.97,0,25.33,11.36,25.33,25.33V61    h-2.96c-14.42,0-27.8-7.16-35.8-19.16c-2.96-4.45-9.52-4.45-12.48,0c-8,12-21.38,19.16-35.8,19.16H308.5V41.33z M308.5,106V76    h32.96c16.07,0,31.19-6.6,42.04-18.02C394.35,69.4,409.47,76,425.54,76h2.96v30c0,33.08-26.92,60-60,60S308.5,139.08,308.5,106z     M383.5,179.49V196c0,8.27-6.73,15-15,15s-15-6.73-15-15v-16.51C363.37,181.5,373.61,181.51,383.5,179.49z M496,368.5H383.5    c-4.14,0-7.5,3.36-7.5,7.5s3.36,7.5,7.5,7.5h90V496h-435V383.5h315c4.14,0,7.5-3.36,7.5-7.5s-3.36-7.5-7.5-7.5H16v-30h480V368.5z     M496,323.5H241v-75.29c0-21.1,16.46-38.73,37.5-40.19v40.48h15v-41.48l15-1v42.48h15v-43.48l16.08-1.08    c3.49,12.7,15.13,22.06,28.92,22.06s25.43-9.36,28.92-22.06l16.08,1.08v43.48h15v-42.48l15,1v41.48h15v-40.48    c21.04,1.46,37.5,19.09,37.5,40.19V323.5z"/><path style="fill:#283954;" d="M349.667,99.167c0-4.143-3.357-7.5-7.5-7.5h-7.334c-4.143,0-7.5,3.357-7.5,7.5s3.357,7.5,7.5,7.5    h7.334C346.31,106.667,349.667,103.31,349.667,99.167z"/><path style="fill:#283954;" d="M394.833,106.667h7.334c4.143,0,7.5-3.357,7.5-7.5s-3.357-7.5-7.5-7.5h-7.334    c-4.143,0-7.5,3.357-7.5,7.5S390.69,106.667,394.833,106.667z"/><path style="fill:#283954;" d="M390.285,135.504c2.579-3.241,2.043-7.96-1.197-10.539c-3.242-2.58-7.96-2.044-10.539,1.197    c-5.147,6.468-14.96,6.456-20.098,0c-2.579-3.24-7.296-3.776-10.539-1.197c-3.24,2.579-3.776,7.298-1.197,10.539    c5.313,6.676,13.254,10.504,21.785,10.504S384.972,142.18,390.285,135.504z"/></g></g><g id="Layer_1"/></svg>